<mxfile host="app.diagrams.net" modified="2023-08-01T12:38:49.672Z" agent="Mozilla/5.0 (Windows NT 10.0; Win64; x64) AppleWebKit/537.36 (KHTML, like Gecko) Chrome/115.0.0.0 Safari/537.36" etag="poWamH56aZowvE7EYpML" version="21.6.6" type="device">
  <diagram name="Copy of Page-1" id="fJT9yR7--WeHJss9PMDG">
    <mxGraphModel dx="1238" dy="622" grid="1" gridSize="10" guides="1" tooltips="1" connect="1" arrows="1" fold="1" page="1" pageScale="1" pageWidth="827" pageHeight="1169" math="0" shadow="0">
      <root>
        <mxCell id="50VqObcNT-mN6T7bj17H-0" />
        <mxCell id="50VqObcNT-mN6T7bj17H-1" parent="50VqObcNT-mN6T7bj17H-0" />
        <mxCell id="50VqObcNT-mN6T7bj17H-2" value="" style="rounded=1;whiteSpace=wrap;html=1;fillColor=#eeeeee;strokeColor=#36393d;" parent="50VqObcNT-mN6T7bj17H-1" vertex="1">
          <mxGeometry x="63.17" y="134" width="120" height="320" as="geometry" />
        </mxCell>
        <mxCell id="50VqObcNT-mN6T7bj17H-3" value="Admin Portal" style="pointerEvents=1;shadow=0;dashed=0;html=1;strokeColor=#6c8ebf;fillColor=#dae8fc;aspect=fixed;labelPosition=center;verticalLabelPosition=bottom;verticalAlign=top;align=center;outlineConnect=0;shape=mxgraph.vvd.web_browser;rounded=1;" parent="50VqObcNT-mN6T7bj17H-1" vertex="1">
          <mxGeometry x="95" y="204" width="56.34" height="40" as="geometry" />
        </mxCell>
        <mxCell id="50VqObcNT-mN6T7bj17H-4" value="EComm Portal" style="pointerEvents=1;shadow=0;dashed=0;html=1;strokeColor=#6c8ebf;fillColor=#dae8fc;aspect=fixed;labelPosition=center;verticalLabelPosition=bottom;verticalAlign=top;align=center;outlineConnect=0;shape=mxgraph.vvd.web_browser;rounded=1;" parent="50VqObcNT-mN6T7bj17H-1" vertex="1">
          <mxGeometry x="98.16999999999999" y="324" width="50" height="35.5" as="geometry" />
        </mxCell>
        <mxCell id="50VqObcNT-mN6T7bj17H-26" style="edgeStyle=orthogonalEdgeStyle;rounded=1;orthogonalLoop=1;jettySize=auto;html=1;flowAnimation=1;" parent="50VqObcNT-mN6T7bj17H-1" source="50VqObcNT-mN6T7bj17H-4" edge="1">
          <mxGeometry relative="1" as="geometry">
            <mxPoint x="259" y="287" as="targetPoint" />
            <Array as="points">
              <mxPoint x="209" y="342" />
              <mxPoint x="209" y="287" />
            </Array>
          </mxGeometry>
        </mxCell>
        <mxCell id="50VqObcNT-mN6T7bj17H-27" style="edgeStyle=orthogonalEdgeStyle;rounded=1;orthogonalLoop=1;jettySize=auto;html=1;flowAnimation=1;" parent="50VqObcNT-mN6T7bj17H-1" source="50VqObcNT-mN6T7bj17H-3" edge="1">
          <mxGeometry relative="1" as="geometry">
            <mxPoint x="259" y="287" as="targetPoint" />
            <Array as="points">
              <mxPoint x="209" y="224" />
              <mxPoint x="209" y="287" />
            </Array>
          </mxGeometry>
        </mxCell>
        <mxCell id="50VqObcNT-mN6T7bj17H-31" value="Clients" style="text;html=1;strokeColor=none;fillColor=none;align=center;verticalAlign=middle;whiteSpace=wrap;rounded=0;" parent="50VqObcNT-mN6T7bj17H-1" vertex="1">
          <mxGeometry x="91.34" y="154" width="60" height="30" as="geometry" />
        </mxCell>
        <mxCell id="50VqObcNT-mN6T7bj17H-24" value="&lt;font style=&quot;font-size: 11px;&quot;&gt;AWS SSM Parameter Store&lt;/font&gt;" style="sketch=0;outlineConnect=0;fontColor=#232F3E;gradientColor=none;fillColor=#B0084D;strokeColor=none;dashed=0;verticalLabelPosition=bottom;verticalAlign=top;align=center;html=1;fontSize=12;fontStyle=0;aspect=fixed;pointerEvents=1;shape=mxgraph.aws4.parameter_store;rounded=1;" parent="50VqObcNT-mN6T7bj17H-1" vertex="1">
          <mxGeometry x="1090.002440944882" y="150" width="60.51814960629921" height="62.94094488188976" as="geometry" />
        </mxCell>
        <mxCell id="50VqObcNT-mN6T7bj17H-25" value="" style="endArrow=classic;startArrow=classic;html=1;rounded=1;comic=0;flowAnimation=1;" parent="50VqObcNT-mN6T7bj17H-1" target="50VqObcNT-mN6T7bj17H-24" edge="1">
          <mxGeometry width="50" height="50" relative="1" as="geometry">
            <mxPoint x="930" y="251" as="sourcePoint" />
            <mxPoint x="737.0748031496063" y="298" as="targetPoint" />
            <Array as="points" />
          </mxGeometry>
        </mxCell>
        <mxCell id="50VqObcNT-mN6T7bj17H-18" value="&lt;b&gt;AWS WAF&lt;/b&gt;" style="rounded=0;whiteSpace=wrap;html=1;fillColor=#fff2cc;strokeColor=#d6b656;" parent="50VqObcNT-mN6T7bj17H-1" vertex="1">
          <mxGeometry x="554" y="140" width="48.75" height="290" as="geometry" />
        </mxCell>
        <mxCell id="50VqObcNT-mN6T7bj17H-20" value="Postgres DB" style="text;html=1;strokeColor=none;fillColor=none;align=center;verticalAlign=middle;whiteSpace=wrap;rounded=0;" parent="50VqObcNT-mN6T7bj17H-1" vertex="1">
          <mxGeometry x="1074.717431437719" y="359.50241379310347" width="94.37184198070172" height="35.689655172413794" as="geometry" />
        </mxCell>
        <mxCell id="50VqObcNT-mN6T7bj17H-21" value="" style="html=1;verticalLabelPosition=bottom;align=center;labelBackgroundColor=#ffffff;verticalAlign=top;strokeWidth=2;strokeColor=#0080F0;shadow=0;dashed=0;shape=mxgraph.ios7.icons.data;rounded=1;" parent="50VqObcNT-mN6T7bj17H-1" vertex="1">
          <mxGeometry x="1090" y="300" width="58.75" height="50" as="geometry" />
        </mxCell>
        <mxCell id="50VqObcNT-mN6T7bj17H-22" style="edgeStyle=orthogonalEdgeStyle;rounded=1;orthogonalLoop=1;jettySize=auto;html=1;flowAnimation=1;startArrow=classic;startFill=1;" parent="50VqObcNT-mN6T7bj17H-1" target="50VqObcNT-mN6T7bj17H-8" edge="1">
          <mxGeometry relative="1" as="geometry">
            <mxPoint x="1090" y="335" as="sourcePoint" />
            <Array as="points">
              <mxPoint x="990" y="335" />
              <mxPoint x="990" y="290" />
            </Array>
          </mxGeometry>
        </mxCell>
        <mxCell id="RFZJqIBeAV4Db-_8I4pQ-33" style="edgeStyle=orthogonalEdgeStyle;rounded=0;orthogonalLoop=1;jettySize=auto;html=1;flowAnimation=1;" edge="1" parent="50VqObcNT-mN6T7bj17H-1" source="b06vBAr8bjXPx-gp5gIn-19" target="RFZJqIBeAV4Db-_8I4pQ-14">
          <mxGeometry relative="1" as="geometry" />
        </mxCell>
        <mxCell id="b06vBAr8bjXPx-gp5gIn-19" value="&lt;b&gt;AWS WAF&lt;/b&gt;" style="rounded=0;whiteSpace=wrap;html=1;fillColor=#fff2cc;strokeColor=#d6b656;" parent="50VqObcNT-mN6T7bj17H-1" vertex="1">
          <mxGeometry x="250" y="141.06" width="50" height="287.88" as="geometry" />
        </mxCell>
        <mxCell id="RFZJqIBeAV4Db-_8I4pQ-2" value="" style="group" vertex="1" connectable="0" parent="50VqObcNT-mN6T7bj17H-1">
          <mxGeometry x="660" y="140" width="342.49" height="330" as="geometry" />
        </mxCell>
        <mxCell id="50VqObcNT-mN6T7bj17H-8" value="" style="rounded=1;whiteSpace=wrap;html=1;fillColor=#d5e8d4;strokeColor=#82b366;" parent="RFZJqIBeAV4Db-_8I4pQ-2" vertex="1">
          <mxGeometry width="342.4894562336317" height="296.15536065867195" as="geometry" />
        </mxCell>
        <mxCell id="b06vBAr8bjXPx-gp5gIn-13" value="" style="rounded=1;whiteSpace=wrap;html=1;fillColor=#f0a30a;strokeColor=#BD7000;fontColor=#000000;" parent="RFZJqIBeAV4Db-_8I4pQ-2" vertex="1">
          <mxGeometry x="12.000032133917088" y="9.844281367460175" width="321.0008595822821" height="275.6398782888849" as="geometry" />
        </mxCell>
        <mxCell id="50VqObcNT-mN6T7bj17H-17" value="" style="rounded=1;whiteSpace=wrap;html=1;" parent="RFZJqIBeAV4Db-_8I4pQ-2" vertex="1">
          <mxGeometry x="140" y="39.45" width="170" height="73.68" as="geometry" />
        </mxCell>
        <mxCell id="50VqObcNT-mN6T7bj17H-9" value="" style="rounded=1;whiteSpace=wrap;html=1;" parent="RFZJqIBeAV4Db-_8I4pQ-2" vertex="1">
          <mxGeometry x="43.48" y="39.45" width="86.52" height="208.11" as="geometry" />
        </mxCell>
        <mxCell id="b06vBAr8bjXPx-gp5gIn-16" value="" style="group;rounded=1;fontStyle=1" parent="RFZJqIBeAV4Db-_8I4pQ-2" vertex="1" connectable="0">
          <mxGeometry x="58.28559186301678" y="91.3442381637175" width="83.55992755189152" height="147.31644581324875" as="geometry" />
        </mxCell>
        <mxCell id="b06vBAr8bjXPx-gp5gIn-17" value="&lt;b&gt;API&lt;/b&gt;" style="text;html=1;strokeColor=none;fillColor=none;align=center;verticalAlign=middle;whiteSpace=wrap;rounded=1;rotation=-90;" parent="b06vBAr8bjXPx-gp5gIn-16" vertex="1">
          <mxGeometry x="-16.71584782908932" y="46.47502592224561" width="100.27191306226982" height="20.08860624726119" as="geometry" />
        </mxCell>
        <mxCell id="b06vBAr8bjXPx-gp5gIn-18" value="&lt;b&gt;&lt;font color=&quot;#ffffff&quot;&gt;ECS Fargate&lt;/font&gt;&lt;/b&gt;" style="text;html=1;strokeColor=none;fillColor=none;align=center;verticalAlign=middle;whiteSpace=wrap;rounded=0;" parent="RFZJqIBeAV4Db-_8I4pQ-2" vertex="1">
          <mxGeometry x="101" y="262.42" width="142.9" height="12.21" as="geometry" />
        </mxCell>
        <mxCell id="RFZJqIBeAV4Db-_8I4pQ-44" value="" style="group" vertex="1" connectable="0" parent="RFZJqIBeAV4Db-_8I4pQ-2">
          <mxGeometry x="154.1544280620974" y="123.65944958431827" width="74.99769114605073" height="123.89384531825728" as="geometry" />
        </mxCell>
        <mxCell id="50VqObcNT-mN6T7bj17H-12" value="" style="rounded=1;whiteSpace=wrap;html=1;strokeColor=default;arcSize=15;glass=0;" parent="RFZJqIBeAV4Db-_8I4pQ-44" vertex="1">
          <mxGeometry x="-10" width="74.99769114605074" height="123.89384531825729" as="geometry" />
        </mxCell>
        <mxCell id="50VqObcNT-mN6T7bj17H-13" value="Application" style="text;html=1;strokeColor=none;fillColor=none;align=center;verticalAlign=middle;whiteSpace=wrap;rounded=1;rotation=-90;fontStyle=1" parent="RFZJqIBeAV4Db-_8I4pQ-44" vertex="1">
          <mxGeometry x="-22.633318910744663" y="53.536770242496445" width="100.27191306226982" height="20.08860624726119" as="geometry" />
        </mxCell>
        <mxCell id="RFZJqIBeAV4Db-_8I4pQ-47" value="Domain" style="text;html=1;strokeColor=none;fillColor=none;align=center;verticalAlign=middle;whiteSpace=wrap;rounded=1;rotation=0;fontStyle=1" vertex="1" parent="RFZJqIBeAV4Db-_8I4pQ-2">
          <mxGeometry x="174.86110915135268" y="71.25621982681474" width="100.27191306226982" height="20.08860624726119" as="geometry" />
        </mxCell>
        <mxCell id="RFZJqIBeAV4Db-_8I4pQ-3" style="edgeStyle=orthogonalEdgeStyle;rounded=0;orthogonalLoop=1;jettySize=auto;html=1;exitX=1;exitY=0.5;exitDx=0;exitDy=0;flowAnimation=1;" edge="1" parent="50VqObcNT-mN6T7bj17H-1" source="50VqObcNT-mN6T7bj17H-18">
          <mxGeometry relative="1" as="geometry">
            <mxPoint x="710" y="275" as="targetPoint" />
            <Array as="points">
              <mxPoint x="603" y="275" />
              <mxPoint x="656" y="275" />
              <mxPoint x="710" y="276" />
            </Array>
          </mxGeometry>
        </mxCell>
        <mxCell id="50VqObcNT-mN6T7bj17H-30" value="&lt;font style=&quot;font-size: 16px;&quot; face=&quot;Verdana&quot;&gt;Spovix Application Architecture&lt;/font&gt;" style="text;html=1;align=center;verticalAlign=middle;whiteSpace=wrap;rounded=0;fontStyle=1;labelBackgroundColor=none;labelBorderColor=none;fontSize=23;fillColor=#f8cecc;strokeColor=#b85450;" parent="50VqObcNT-mN6T7bj17H-1" vertex="1">
          <mxGeometry x="410.39" y="570" width="420" height="29.53" as="geometry" />
        </mxCell>
        <mxCell id="RFZJqIBeAV4Db-_8I4pQ-22" style="edgeStyle=orthogonalEdgeStyle;rounded=0;orthogonalLoop=1;jettySize=auto;html=1;flowAnimation=1;" edge="1" parent="50VqObcNT-mN6T7bj17H-1" source="RFZJqIBeAV4Db-_8I4pQ-14" target="RFZJqIBeAV4Db-_8I4pQ-19">
          <mxGeometry relative="1" as="geometry">
            <mxPoint x="440" y="240" as="sourcePoint" />
          </mxGeometry>
        </mxCell>
        <mxCell id="RFZJqIBeAV4Db-_8I4pQ-26" style="edgeStyle=orthogonalEdgeStyle;rounded=0;orthogonalLoop=1;jettySize=auto;html=1;entryX=0;entryY=0.5;entryDx=0;entryDy=0;flowAnimation=1;" edge="1" parent="50VqObcNT-mN6T7bj17H-1" source="RFZJqIBeAV4Db-_8I4pQ-19" target="50VqObcNT-mN6T7bj17H-18">
          <mxGeometry relative="1" as="geometry" />
        </mxCell>
        <mxCell id="RFZJqIBeAV4Db-_8I4pQ-32" value="" style="group" vertex="1" connectable="0" parent="50VqObcNT-mN6T7bj17H-1">
          <mxGeometry x="403.14" y="104" width="110.36" height="86" as="geometry" />
        </mxCell>
        <mxCell id="RFZJqIBeAV4Db-_8I4pQ-14" value="" style="sketch=0;outlineConnect=0;fontColor=#232F3E;gradientColor=none;strokeColor=#ffffff;fillColor=#232F3E;dashed=0;verticalLabelPosition=middle;verticalAlign=bottom;align=center;html=1;whiteSpace=wrap;fontSize=10;fontStyle=1;spacing=3;shape=mxgraph.aws4.productIcon;prIcon=mxgraph.aws4.cloudfront;" vertex="1" parent="RFZJqIBeAV4Db-_8I4pQ-32">
          <mxGeometry x="27.026938775510203" y="39.31852948433259" width="56.30612244897959" height="46.68147051566741" as="geometry" />
        </mxCell>
        <mxCell id="RFZJqIBeAV4Db-_8I4pQ-15" value="&lt;br style=&quot;border-color: var(--border-color); color: rgb(35, 47, 62); font-size: 10px;&quot;&gt;Cloudfront" style="text;html=1;strokeColor=none;fillColor=none;align=center;verticalAlign=middle;whiteSpace=wrap;rounded=0;fontStyle=1" vertex="1" parent="RFZJqIBeAV4Db-_8I4pQ-32">
          <mxGeometry y="84.8754009375771" width="110.36" height="31.82827535159141" as="geometry" />
        </mxCell>
        <mxCell id="RFZJqIBeAV4Db-_8I4pQ-19" value="&lt;b&gt;&amp;nbsp; &amp;nbsp; &amp;nbsp;S3 Bucket&lt;/b&gt;" style="outlineConnect=0;gradientColor=#97d077;html=1;whiteSpace=wrap;fontSize=12;fontStyle=0;strokeColor=#82b366;fillColor=#d5e8d4;verticalAlign=top;align=center;dashed=1;spacingTop=3;" vertex="1" parent="50VqObcNT-mN6T7bj17H-1">
          <mxGeometry x="403.14" y="245.19" width="111" height="150" as="geometry" />
        </mxCell>
        <mxCell id="RFZJqIBeAV4Db-_8I4pQ-8" value="" style="shape=image;verticalLabelPosition=bottom;labelBackgroundColor=default;verticalAlign=top;aspect=fixed;imageAspect=0;image=data:image/svg+xml,PHN2ZyB4bWxuczp4bGluaz0iaHR0cDovL3d3dy53My5vcmcvMTk5OS94bGluayIgeG1sbnM9Imh0dHA6Ly93d3cudzMub3JnLzIwMDAvc3ZnIiB4bWw6c3BhY2U9InByZXNlcnZlIiB2aWV3Qm94PSIwIDAgMTAwIDEwMCIgeT0iMHB4IiB4PSIwcHgiIHZlcnNpb249IjEuMSI+JiN4YTs8ZyBpZD0iTGF5ZXJfMSI+JiN4YTsgIDxwYXRoIGZpbGw9IiNiMmIyYjIiIGQ9Ik0gNTAgMCBMIDEwMCAxNCBMIDkyIDgwIEwgNTAgMTAwIEwgOCA4MCBMIDAgMTQgWiIvPiYjeGE7ICA8cGF0aCBmaWxsPSIjRTQyOTM5IiBkPSJNIDUwIDUgTCA2IDE4IEwgMTMuNSA3NyBMIDUwIDk0IFoiLz4mI3hhOyAgPHBhdGggZmlsbD0iI0I3MjgzMyIgZD0iTSA1MCA1IEwgOTQgMTggTCA4Ni41IDc3IEwgNTAgOTQgWiIvPiYjeGE7ICA8cGF0aCBmaWxsPSIjYjJiMmIyIiBkPSJNIDUwIDcgTCA4MyA3NSBMIDcyIDc1IEwgNjUgNTkgTCA1MCA1OSBMIDUwIDUwIEwgNjEgNTAgTCA1MCAyNiBaIi8+JiN4YTsgIDxwYXRoIGZpbGw9IiNmZmYiIGQ9Ik0gNTAgNyBMIDE3IDc1IEwgMjggNzUgTCAzNSA1OSBMIDUwIDU5IEwgNTAgNTAgTCAzOSA1MCBMIDUwIDI2IFoiLz4mI3hhOzwvZz4mI3hhOzwvc3ZnPg==;container=0;" vertex="1" parent="50VqObcNT-mN6T7bj17H-1">
          <mxGeometry x="430" y="318.75" width="48" height="48" as="geometry" />
        </mxCell>
        <mxCell id="RFZJqIBeAV4Db-_8I4pQ-9" value="Angular JS" style="text;html=1;strokeColor=none;fillColor=none;align=center;verticalAlign=middle;whiteSpace=wrap;rounded=0;fontStyle=1" vertex="1" parent="50VqObcNT-mN6T7bj17H-1">
          <mxGeometry x="410.39" y="366.75" width="98" height="30" as="geometry" />
        </mxCell>
        <mxCell id="RFZJqIBeAV4Db-_8I4pQ-10" value="" style="sketch=0;points=[[0,0,0],[0.25,0,0],[0.5,0,0],[0.75,0,0],[1,0,0],[0,1,0],[0.25,1,0],[0.5,1,0],[0.75,1,0],[1,1,0],[0,0.25,0],[0,0.5,0],[0,0.75,0],[1,0.25,0],[1,0.5,0],[1,0.75,0]];outlineConnect=0;fontColor=#232F3E;gradientColor=#989d95;gradientDirection=north;fillColor=#277116;strokeColor=#ffffff;dashed=0;verticalLabelPosition=bottom;verticalAlign=top;align=center;html=1;fontSize=12;fontStyle=0;aspect=fixed;shape=mxgraph.aws4.resourceIcon;resIcon=mxgraph.aws4.s3;" vertex="1" parent="50VqObcNT-mN6T7bj17H-1">
          <mxGeometry x="403.39" y="267" width="26" height="26" as="geometry" />
        </mxCell>
        <mxCell id="RFZJqIBeAV4Db-_8I4pQ-37" value="" style="shape=curlyBracket;whiteSpace=wrap;html=1;rounded=1;flipH=1;labelPosition=right;verticalLabelPosition=middle;align=left;verticalAlign=middle;rotation=90;" vertex="1" parent="50VqObcNT-mN6T7bj17H-1">
          <mxGeometry x="313.12" y="261.87" width="20" height="456.25" as="geometry" />
        </mxCell>
        <mxCell id="RFZJqIBeAV4Db-_8I4pQ-38" value="Frontend" style="text;html=1;strokeColor=none;fillColor=none;align=center;verticalAlign=middle;whiteSpace=wrap;rounded=0;fontStyle=1" vertex="1" parent="50VqObcNT-mN6T7bj17H-1">
          <mxGeometry x="272.25" y="510" width="98" height="30" as="geometry" />
        </mxCell>
        <mxCell id="RFZJqIBeAV4Db-_8I4pQ-40" value="" style="shape=curlyBracket;whiteSpace=wrap;html=1;rounded=1;flipH=1;labelPosition=right;verticalLabelPosition=middle;align=left;verticalAlign=middle;rotation=90;" vertex="1" parent="50VqObcNT-mN6T7bj17H-1">
          <mxGeometry x="869.79" y="166.49" width="20" height="647.03" as="geometry" />
        </mxCell>
        <mxCell id="RFZJqIBeAV4Db-_8I4pQ-41" value="Backend" style="text;html=1;strokeColor=none;fillColor=none;align=center;verticalAlign=middle;whiteSpace=wrap;rounded=0;fontStyle=1" vertex="1" parent="50VqObcNT-mN6T7bj17H-1">
          <mxGeometry x="842.25" y="510" width="98" height="30" as="geometry" />
        </mxCell>
        <mxCell id="RFZJqIBeAV4Db-_8I4pQ-45" value="" style="group" vertex="1" connectable="0" parent="50VqObcNT-mN6T7bj17H-1">
          <mxGeometry x="904.1544280620974" y="263.6594495843183" width="74.99769114605078" height="123.89384531825726" as="geometry" />
        </mxCell>
        <mxCell id="RFZJqIBeAV4Db-_8I4pQ-42" value="" style="rounded=1;whiteSpace=wrap;html=1;strokeColor=default;arcSize=15;glass=0;" vertex="1" parent="RFZJqIBeAV4Db-_8I4pQ-45">
          <mxGeometry x="-10" width="74.99769114605074" height="123.89384531825729" as="geometry" />
        </mxCell>
        <mxCell id="RFZJqIBeAV4Db-_8I4pQ-43" value="infrastructure" style="text;html=1;strokeColor=none;fillColor=none;align=center;verticalAlign=middle;whiteSpace=wrap;rounded=1;rotation=-90;fontStyle=1" vertex="1" parent="RFZJqIBeAV4Db-_8I4pQ-45">
          <mxGeometry x="-22.63331891074472" y="53.53677024249646" width="100.27191306226982" height="20.08860624726119" as="geometry" />
        </mxCell>
      </root>
    </mxGraphModel>
  </diagram>
</mxfile>
